<?xml version="1.0" standalone="no"?>
<!DOCTYPE svg PUBLIC "-//W3C//DTD SVG 20010904//EN"
 "http://www.w3.org/TR/2001/REC-SVG-20010904/DTD/svg10.dtd">
<svg version="1.0" xmlns="http://www.w3.org/2000/svg"
 width="1280.000000pt" height="942.000000pt" viewBox="0 0 1280.000000 942.000000"
 preserveAspectRatio="xMidYMid meet">
<g transform="translate(0.000000,942.000000) scale(0.100000,-0.100000)"
fill="#000000" stroke="none">
<path d="M6075 9409 c-55 -5 -199 -15 -321 -24 -1479 -103 -2930 -597 -4176
-1422 -415 -274 -800 -581 -1200 -956 -178 -167 -247 -246 -294 -342 -39 -79
-84 -248 -84 -315 0 -67 45 -236 84 -315 89 -180 264 -319 466 -371 78 -20
231 -22 313 -5 150 32 247 91 411 249 247 238 460 420 718 615 1008 761 2207
1248 3478 1411 320 41 489 51 930 51 441 0 610 -10 930 -51 1472 -189 2844
-812 3940 -1789 74 -66 189 -172 256 -237 164 -158 261 -217 411 -249 82 -17
235 -15 313 5 202 52 377 191 466 371 39 79 84 248 84 315 0 67 -45 236 -84
315 -47 96 -116 175 -294 342 -432 405 -846 730 -1297 1020 -1226 787 -2639
1257 -4073 1358 -119 8 -275 19 -347 25 -149 11 -483 11 -630 -1z"/>
<path d="M6230 6804 c-1181 -38 -2268 -378 -3225 -1009 -368 -242 -782 -581
-1008 -825 -116 -125 -177 -280 -177 -451 0 -256 144 -487 375 -599 220 -106
470 -87 672 51 26 18 97 80 158 138 524 503 1119 865 1798 1097 1169 398 2453
338 3577 -168 510 -229 953 -531 1392 -945 131 -125 198 -169 313 -209 71 -25
94 -28 205 -28 108 0 136 4 206 27 183 61 340 206 411 380 29 71 53 188 53
258 0 131 -59 297 -145 409 -87 114 -464 447 -730 646 -955 715 -2091 1136
-3270 1213 -178 12 -472 19 -605 15z"/>
<path d="M6055 4349 c-867 -86 -1636 -436 -2250 -1021 -179 -170 -251 -308
-262 -503 -17 -296 174 -571 462 -667 101 -33 299 -33 400 0 106 35 189 90
315 207 393 366 850 581 1373 650 149 19 446 20 597 1 463 -58 893 -240 1245
-526 39 -32 116 -100 173 -153 159 -147 297 -207 483 -207 184 0 334 64 469
199 134 135 193 275 193 461 0 221 -77 371 -291 567 -603 551 -1275 865 -2092
979 -135 19 -674 28 -815 13z"/>
<path d="M6275 1639 c-193 -28 -352 -113 -492 -263 -244 -261 -281 -672 -89
-981 121 -193 310 -321 556 -374 140 -31 162 -30 359 21 222 57 425 231 526
452 54 118 69 194 68 341 0 110 -4 143 -27 218 -14 49 -38 112 -52 140 -157
313 -505 495 -849 446z"/>
</g>
</svg>
